<svg xmlns="http://www.w3.org/2000/svg"  viewBox="0 0 50 50" width="500px" height="500px"><path d="M 24.011719 2 C 18.617188 2 13.378906 2.757813 9.808594 3.878906 C 5.019531 5.386719 4.023438 6.039063 4.023438 9.320313 C 4.023438 26.5625 10.8125 36.148438 16.816406 41.894531 C 19.976563 44.921875 22.902344 47.113281 24.011719 47.113281 C 25.121094 47.113281 28.042969 44.921875 31.203125 41.894531 C 37.210938 36.148438 44 26.5625 44 9.320313 C 44 6.039063 43.003906 5.386719 38.214844 3.878906 C 34.644531 2.757813 29.40625 2 24.011719 2 Z M 24.011719 4 C 28.972656 4 34.058594 4.667969 37.613281 5.785156 C 42 7.164063 42 7.328125 42 9.320313 C 42 22.421875 38.015625 32.605469 29.820313 40.453125 C 26.832031 43.3125 24.785156 44.734375 24.011719 45.066406 C 23.242188 44.734375 21.191406 43.3125 18.203125 40.453125 C 10.007813 32.605469 6.023438 22.421875 6.023438 9.320313 C 6.023438 7.328125 6.023438 7.164063 10.40625 5.785156 C 13.964844 4.667969 19.050781 4 24.011719 4 Z M 22.421875 7.324219 C 21.695313 7.324219 21.105469 8.03125 21.105469 9.507813 C 21.105469 11.234375 21.695313 11.691406 22.421875 11.691406 C 23.152344 11.691406 23.742188 10.96875 23.742188 9.507813 C 23.742188 8.050781 23.152344 7.324219 22.421875 7.324219 Z M 24.199219 7.367188 L 24.199219 11.621094 L 24.953125 11.621094 C 24.953125 11.632813 24.964844 9.859375 24.964844 9.859375 L 25.253906 9.859375 L 25.902344 11.65625 L 26.734375 11.691406 L 26.0625 9.734375 C 26.0625 9.734375 26.675781 9.511719 26.675781 8.609375 C 26.675781 7.707031 25.949219 7.441406 25.671875 7.429688 C 25.390625 7.414063 24.199219 7.367188 24.199219 7.367188 Z M 28.222656 7.445313 C 27.367188 7.445313 26.96875 8.269531 26.96875 9.484375 C 26.96875 10.703125 27.273438 11.84375 28.394531 11.84375 C 29.515625 11.84375 29.515625 10.816406 29.515625 10.613281 L 29.515625 9.625 L 28.308594 9.523438 L 28.308594 10.261719 L 28.738281 10.292969 C 28.738281 10.292969 28.746094 10.445313 28.746094 10.535156 C 28.746094 10.628906 28.742188 11.089844 28.351563 11.089844 C 27.890625 11.089844 27.726563 10.328125 27.726563 9.570313 C 27.726563 8.816406 27.957031 8.214844 28.296875 8.214844 C 28.632813 8.214844 28.746094 8.882813 28.746094 8.882813 L 29.523438 8.746094 C 29.523438 8.746094 29.425781 7.445313 28.222656 7.445313 Z M 19.628906 7.550781 C 19.105469 7.578125 18.328125 7.65625 18.328125 7.65625 L 18.328125 11.894531 C 18.328125 11.894531 19.5625 11.796875 19.707031 11.78125 C 19.855469 11.765625 20.75 11.589844 20.75 10.371094 C 20.746094 10.371094 20.757813 9.710938 20.28125 9.492188 C 20.484375 9.339844 20.683594 9.160156 20.683594 8.582031 C 20.683594 8.003906 20.25 7.519531 19.628906 7.550781 Z M 30.082031 7.703125 L 30.082031 11.949219 L 30.824219 12.0625 L 30.839844 10.195313 L 31.808594 10.324219 L 31.792969 12.175781 L 32.59375 12.316406 L 32.59375 8.101563 L 31.808594 7.945313 L 31.808594 9.570313 L 30.855469 9.425781 L 30.855469 7.816406 Z M 17.71875 7.710938 L 16.941406 7.808594 L 16.25 10.375 L 15.53125 8.027344 L 14.777344 8.195313 C 14.773438 8.195313 14.773438 12.4375 14.78125 12.425781 L 15.492188 12.296875 L 15.441406 9.945313 L 16.21875 12.511719 L 17.007813 9.984375 L 16.953125 12.066406 L 17.71875 11.984375 Z M 22.421875 8.09375 C 22.734375 8.09375 22.984375 8.570313 22.984375 9.53125 C 22.984375 10.492188 22.734375 10.96875 22.421875 10.96875 C 22.113281 10.96875 21.859375 10.667969 21.859375 9.53125 C 21.859375 8.558594 22.113281 8.09375 22.421875 8.09375 Z M 24.953125 8.132813 L 25.402344 8.132813 C 25.597656 8.132813 25.921875 8.25 25.921875 8.585938 C 25.921875 8.925781 25.75 9.15625 25.507813 9.15625 L 24.953125 9.15625 Z M 33.195313 8.226563 L 33.195313 12.4375 L 33.988281 12.589844 L 33.988281 8.375 Z M 19.457031 8.289063 C 19.519531 8.285156 19.910156 8.28125 19.910156 8.640625 C 19.910156 8.996094 19.671875 9.1875 19.496094 9.203125 C 19.320313 9.21875 19.089844 9.21875 19.089844 9.21875 L 19.09375 8.304688 C 19.09375 8.304688 19.394531 8.289063 19.457031 8.289063 Z M 13.371094 8.492188 L 12.644531 8.671875 L 11.613281 13.203125 L 12.425781 12.960938 L 12.65625 11.839844 L 13.394531 11.628906 L 13.644531 12.691406 L 14.453125 12.488281 Z M 34.628906 8.5 L 34.628906 12.71875 L 35.367188 12.941406 L 35.367188 10.320313 L 36.480469 13.238281 L 37.121094 13.484375 L 37.121094 9.207031 L 36.351563 8.953125 L 36.351563 11.21875 L 35.34375 8.671875 Z M 10.222656 9.398438 L 9.445313 9.695313 L 9.445313 13.988281 L 11.511719 13.25 L 11.511719 12.488281 L 10.222656 12.96875 Z M 37.753906 9.445313 L 37.753906 13.6875 L 38.523438 14 L 38.523438 9.710938 Z M 13.015625 9.757813 L 13.277344 11 L 12.777344 11.113281 Z M 19.546875 9.953125 C 19.621094 9.953125 19.980469 10.007813 19.980469 10.40625 C 19.980469 10.800781 19.757813 10.992188 19.578125 11.027344 C 19.402344 11.058594 19.105469 11.0625 19.105469 11.0625 L 19.105469 9.976563 C 19.105469 9.976563 19.476563 9.953125 19.546875 9.953125 Z M 25.753906 13 C 25.636719 13.003906 25.492188 13.019531 25.3125 13.050781 C 24.949219 13.128906 24.730469 13.148438 24.53125 13.160156 C 24.347656 13.171875 24.179688 13.179688 23.96875 13.21875 C 23.742188 13.25 23.429688 13.257813 23.171875 13.371094 C 22.910156 13.480469 22.691406 13.660156 22.679688 14.050781 C 22.648438 14.429688 22.757813 14.769531 23.121094 15.03125 C 23.5 15.28125 24.121094 15.460938 25.152344 15.511719 C 26.171875 15.570313 27.289063 15.601563 28.210938 15.710938 C 29.132813 15.820313 29.839844 15.980469 30.070313 16.289063 C 30.300781 16.589844 30.359375 16.789063 30.3125 16.9375 C 30.261719 17.097656 30.109375 17.210938 29.921875 17.359375 C 29.769531 17.347656 29.5 17.351563 29.171875 17.300781 C 28.851563 17.261719 28.480469 17.171875 28.152344 17 C 27.839844 16.828125 27.441406 16.710938 27.050781 16.679688 C 26.660156 16.660156 26.25 16.699219 25.910156 16.871094 C 25.558594 17.027344 24.71875 17.371094 23.847656 17.9375 C 22.96875 18.5 22.058594 19.28125 21.578125 20.328125 C 21.101563 21.378906 20.859375 22.050781 20.710938 22.519531 C 20.5625 22.980469 20.5 23.242188 20.402344 23.480469 C 20.300781 23.71875 20.140625 23.960938 20 24.238281 C 19.859375 24.511719 19.742188 24.820313 19.710938 25.179688 C 19.699219 25.53125 19.648438 25.949219 19.570313 26.347656 C 19.511719 26.75 19.417969 27.128906 19.339844 27.421875 C 19.25 27.699219 19.160156 28.039063 19.0625 28.410156 C 18.96875 28.78125 18.890625 29.191406 18.871094 29.640625 C 18.847656 30.082031 18.800781 30.527344 18.710938 30.949219 C 18.640625 31.269531 18.550781 31.558594 18.449219 31.828125 C 18.410156 31.921875 18.378906 32 18.347656 32.070313 C 18.328125 32.121094 18.300781 32.171875 18.289063 32.21875 C 18.179688 32.492188 18.128906 32.742188 18.070313 32.960938 C 18.019531 33.230469 17.9375 33.5 17.78125 33.75 C 17.597656 34.011719 17.371094 34.339844 17.160156 34.640625 C 16.929688 34.949219 16.699219 35.238281 16.53125 35.4375 C 16.488281 35.480469 16.460938 35.539063 16.421875 35.589844 C 16.351563 35.730469 16.300781 35.871094 16.300781 36 C 16.300781 36.019531 16.3125 36.039063 16.3125 36.0625 C 16.351563 36.261719 16.511719 36.429688 16.839844 36.480469 C 17.167969 36.550781 17.460938 36.488281 17.6875 36.371094 C 17.910156 36.25 18.058594 36.050781 18.121094 35.820313 C 18.167969 35.609375 18.191406 35.300781 18.230469 34.980469 C 18.261719 34.652344 18.300781 34.339844 18.429688 34.097656 L 18.679688 33.570313 C 18.800781 33.398438 18.882813 33.328125 18.960938 33.289063 C 19.050781 33.230469 19.121094 33.191406 19.238281 33.0625 C 19.351563 32.929688 19.550781 32.582031 19.71875 32.160156 C 19.902344 31.761719 20.039063 31.308594 20.050781 30.988281 C 20.070313 30.691406 20.121094 30.429688 20.179688 30.238281 C 20.25 30.03125 20.339844 29.871094 20.4375 29.710938 C 20.53125 29.5625 20.589844 29.378906 20.6875 29.25 C 20.769531 29.121094 20.890625 29.03125 21.089844 29.070313 C 21.289063 29.101563 21.339844 29.210938 21.347656 29.339844 C 21.378906 29.46875 21.351563 29.628906 21.410156 29.761719 C 21.46875 29.898438 21.527344 30.039063 21.621094 30.179688 C 21.710938 30.308594 21.820313 30.429688 22 30.511719 C 22.171875 30.578125 22.320313 30.722656 22.378906 30.878906 C 22.449219 31.050781 22.441406 31.21875 22.320313 31.371094 C 22.199219 31.527344 22.03125 31.789063 21.890625 32.050781 C 21.75 32.332031 21.628906 32.597656 21.628906 32.769531 C 21.621094 32.949219 21.628906 33.21875 21.570313 33.5 C 21.539063 33.699219 21.46875 33.917969 21.339844 34.109375 L 21.1875 34.269531 C 20.960938 34.488281 20.769531 34.710938 20.628906 34.890625 C 20.5 35.082031 20.421875 35.238281 20.421875 35.347656 C 20.410156 35.46875 20.460938 35.621094 20.570313 35.738281 C 20.679688 35.871094 20.859375 35.96875 21.160156 35.980469 C 21.441406 35.992188 21.667969 35.941406 21.847656 35.847656 C 22.007813 35.75 22.132813 35.589844 22.210938 35.402344 C 22.28125 35.199219 22.28125 35.058594 22.261719 34.929688 C 22.238281 34.800781 22.199219 34.6875 22.210938 34.539063 C 22.222656 34.410156 22.261719 34.257813 22.328125 34.097656 C 22.378906 33.941406 22.449219 33.78125 22.480469 33.628906 C 22.5 33.460938 22.550781 33.28125 22.628906 33.070313 C 22.710938 32.859375 22.839844 32.628906 23.03125 32.390625 C 23.210938 32.160156 23.328125 31.949219 23.421875 31.769531 C 23.519531 31.578125 23.578125 31.410156 23.699219 31.269531 C 23.820313 31.109375 23.878906 31.039063 23.921875 31.011719 C 23.96875 30.988281 24.007813 31.039063 24.121094 31.097656 C 24.230469 31.179688 24.242188 31.242188 24.21875 31.320313 C 24.199219 31.398438 24.121094 31.480469 24.050781 31.589844 C 23.980469 31.699219 23.839844 31.890625 23.679688 32.070313 C 23.539063 32.269531 23.378906 32.480469 23.289063 32.628906 C 23.21875 32.730469 23.179688 32.851563 23.160156 32.96875 C 23.148438 32.96875 23.152344 32.96875 23.152344 32.988281 C 23.140625 33.039063 23.140625 33.078125 23.140625 33.121094 L 23.140625 33.152344 C 23.160156 33.320313 23.269531 33.460938 23.511719 33.5 C 23.761719 33.53125 23.941406 33.539063 24.078125 33.511719 C 24.21875 33.46875 24.289063 33.398438 24.328125 33.269531 C 24.351563 33.128906 24.402344 32.921875 24.480469 32.710938 C 24.558594 32.5 24.640625 32.289063 24.730469 32.160156 C 24.832031 32.03125 24.898438 31.910156 24.929688 31.8125 C 24.96875 31.699219 24.980469 31.609375 24.988281 31.550781 C 25.109375 31.691406 25.21875 31.859375 25.3125 32.019531 C 25.402344 32.179688 25.460938 32.359375 25.519531 32.511719 C 25.578125 32.679688 25.730469 32.867188 26 33.039063 C 26.269531 33.1875 26.671875 33.308594 27.21875 33.320313 C 27.78125 33.320313 28.070313 33.308594 28.21875 33.269531 C 28.378906 33.21875 28.421875 33.148438 28.488281 33.011719 C 28.570313 32.878906 28.730469 32.628906 28.828125 32.359375 C 28.921875 32.078125 28.929688 31.8125 28.6875 31.640625 C 28.75 31.421875 28.828125 31.121094 28.9375 30.839844 C 29.058594 30.539063 29.199219 30.269531 29.402344 30.109375 C 29.589844 29.929688 29.839844 29.769531 30.0625 29.609375 C 30.28125 29.460938 30.480469 29.332031 30.5625 29.21875 C 30.832031 29.402344 31.089844 29.601563 31.28125 29.890625 C 31.46875 30.179688 31.589844 30.539063 31.589844 31.050781 C 31.558594 31.3125 31.589844 31.558594 31.621094 31.78125 C 31.648438 32 31.679688 32.191406 31.699219 32.328125 C 31.71875 32.460938 31.710938 32.609375 31.699219 32.75 C 31.699219 32.898438 31.679688 33.0625 31.699219 33.21875 C 31.71875 33.378906 31.800781 33.53125 31.9375 33.640625 C 32.058594 33.75 32.210938 33.800781 32.339844 33.789063 C 32.46875 33.777344 32.597656 33.660156 32.699219 33.511719 C 32.800781 33.351563 32.859375 33.167969 32.878906 33.011719 C 32.878906 32.851563 32.839844 32.742188 32.789063 32.640625 C 32.71875 32.5625 32.648438 32.480469 32.589844 32.410156 C 32.53125 32.351563 32.480469 32.28125 32.46875 32.210938 C 32.46875 32.121094 32.492188 32.011719 32.570313 31.828125 C 32.648438 31.660156 32.648438 31.488281 32.597656 31.359375 C 32.570313 31.230469 32.488281 31.128906 32.429688 31.0625 C 32.359375 30.992188 32.300781 30.800781 32.25 30.539063 C 32.210938 30.300781 32.191406 30 32.230469 29.699219 C 32.261719 29.417969 32.25 29.078125 32.1875 28.78125 C 32.121094 28.488281 32.011719 28.238281 31.839844 28.121094 C 32.351563 28.121094 32.941406 28.121094 33.46875 28 C 34 27.878906 34.46875 27.648438 34.769531 27.1875 C 34.46875 27.148438 34.140625 27.148438 33.75 27.011719 C 33.351563 26.871094 32.898438 26.578125 32.371094 25.949219 C 32.429688 25.679688 32.449219 25.5 32.4375 25.347656 C 32.429688 25.199219 32.378906 25.082031 32.328125 24.910156 C 32.269531 24.761719 32.191406 24.609375 32.140625 24.371094 C 32.101563 24.128906 32.089844 23.8125 32.1875 23.300781 C 32.269531 22.78125 32.3125 21.960938 32.140625 21.039063 C 31.980469 20.128906 31.628906 19.121094 30.949219 18.261719 C 31.1875 17.667969 31.320313 17.261719 31.371094 16.921875 C 31.410156 16.589844 31.371094 16.328125 31.25 16.039063 C 31.128906 15.738281 30.78125 15.46875 30.261719 15.269531 C 29.75 15.070313 29.058594 14.941406 28.261719 14.902344 C 27.449219 14.871094 26.308594 14.847656 25.371094 14.769531 C 24.410156 14.691406 23.667969 14.558594 23.6875 14.320313 C 23.699219 14.070313 23.839844 13.96875 24.019531 13.921875 C 24.199219 13.871094 24.429688 13.878906 24.597656 13.871094 C 24.859375 13.988281 25.25 14.082031 25.640625 14.152344 C 26.03125 14.199219 26.4375 14.230469 26.78125 14.238281 C 27.097656 14.269531 27.417969 14.1875 27.761719 14.109375 C 28.089844 14.050781 28.441406 13.96875 28.839844 13.988281 C 28.511719 13.859375 28.101563 13.679688 27.671875 13.53125 C 27.25 13.378906 26.800781 13.28125 26.421875 13.339844 C 26.289063 13.191406 26.199219 13.089844 26.039063 13.03125 C 25.964844 13.007813 25.871094 13 25.753906 13 Z M 26.289063 17.628906 C 26.558594 17.652344 26.820313 17.820313 27.050781 18 C 27.269531 18.191406 27.441406 18.390625 27.519531 18.5 C 27.609375 18.609375 27.671875 18.847656 27.738281 19.109375 C 27.808594 19.359375 27.878906 19.628906 27.980469 19.800781 C 28.070313 19.960938 28.140625 20.199219 28.199219 20.488281 C 28.25 20.769531 28.308594 21.089844 28.339844 21.402344 C 28.378906 21.71875 28.488281 21.949219 28.597656 22.140625 C 28.71875 22.332031 28.851563 22.492188 28.929688 22.640625 C 29.007813 22.800781 29.078125 23.191406 29.1875 23.597656 C 29.289063 24.03125 29.410156 24.492188 29.589844 24.800781 C 29.761719 25.128906 30.058594 25.351563 30.339844 25.5 C 30.628906 25.660156 30.910156 25.742188 31.050781 25.800781 C 31.191406 25.839844 31.289063 25.859375 31.402344 25.929688 C 31.5 26 31.609375 26.089844 31.769531 26.320313 C 32 26.628906 32.359375 26.890625 32.699219 27.089844 C 33.027344 27.289063 33.351563 27.421875 33.488281 27.46875 C 33.03125 27.609375 32.5 27.578125 32.0625 27.449219 C 31.601563 27.320313 31.210938 27.097656 31.050781 26.847656 C 30.949219 26.71875 30.820313 26.589844 30.671875 26.488281 C 30.53125 26.378906 30.359375 26.300781 30.210938 26.25 C 30.0625 26.191406 29.800781 26.070313 29.550781 25.949219 C 29.300781 25.820313 29.050781 25.691406 28.902344 25.597656 C 28.859375 25.667969 28.78125 25.757813 28.660156 25.847656 C 28.550781 25.960938 28.390625 26.082031 28.21875 26.210938 C 28.039063 26.359375 28 26.46875 28.011719 26.5625 C 28.019531 26.660156 28.078125 26.75 28.121094 26.820313 C 28.160156 26.890625 28.359375 27.078125 28.5625 27.261719 C 28.769531 27.460938 28.972656 27.660156 29.050781 27.75 C 28.789063 27.71875 28.621094 27.699219 28.429688 27.621094 C 28.21875 27.539063 27.988281 27.402344 27.621094 27.128906 C 27.230469 26.859375 27.140625 26.601563 27.140625 26.378906 C 27.152344 26.152344 27.269531 25.980469 27.339844 25.910156 C 27.410156 25.832031 27.550781 25.71875 27.710938 25.609375 C 27.851563 25.507813 27.992188 25.421875 28.050781 25.378906 C 28.128906 25.339844 28.160156 25.269531 28.160156 25.230469 C 28.148438 25.191406 28.109375 25.140625 28.019531 25.152344 C 27.371094 25.210938 26.898438 25.359375 26.578125 25.539063 C 26.269531 25.710938 26.121094 25.902344 26.109375 26.050781 C 26.089844 26.191406 26.101563 26.320313 26.152344 26.460938 C 26.210938 26.582031 26.289063 26.710938 26.429688 26.847656 C 26.550781 26.988281 26.589844 27.148438 26.578125 27.320313 C 26.570313 27.46875 26.492188 27.609375 26.402344 27.699219 C 26.308594 27.777344 26.269531 27.820313 26.230469 27.890625 C 26.199219 27.949219 26.167969 28.039063 26.109375 28.230469 C 26.039063 28.402344 25.988281 28.738281 25.9375 29.097656 C 25.898438 29.460938 25.871094 29.839844 25.878906 30.121094 C 25.980469 29.980469 26.109375 29.867188 26.25 29.789063 C 26.378906 29.710938 26.519531 29.671875 26.621094 29.640625 C 26.640625 30.320313 26.582031 30.808594 26.488281 31.171875 C 26.421875 31.519531 26.308594 31.75 26.238281 31.921875 C 26.230469 31.988281 26.199219 32.011719 26.152344 32 C 26.121094 31.988281 26.089844 31.949219 26.078125 31.902344 C 26.039063 31.71875 25.96875 31.480469 25.871094 31.238281 C 25.769531 31.011719 25.660156 30.800781 25.539063 30.671875 C 25.21875 30.320313 25.078125 30.140625 25.03125 30 C 24.960938 29.839844 24.980469 29.730469 24.988281 29.539063 C 24.46875 29.230469 24.328125 28.890625 24.339844 28.589844 C 24.359375 28.289063 24.550781 28.011719 24.699219 27.8125 C 24.847656 27.621094 24.980469 27.378906 25.078125 27.171875 C 25.171875 26.960938 25.230469 26.75 25.25 26.628906 C 25.269531 26.511719 25.21875 26.277344 25.140625 26.039063 C 25.0625 25.800781 24.929688 25.539063 24.800781 25.347656 C 24.761719 25.339844 24.679688 25.308594 24.578125 25.320313 C 24.46875 25.332031 24.359375 25.378906 24.269531 25.539063 C 24.179688 25.6875 24.089844 25.769531 23.988281 25.800781 C 23.878906 25.832031 23.769531 25.832031 23.660156 25.820313 C 23.550781 25.800781 23.410156 25.78125 23.289063 25.800781 C 23.160156 25.8125 23.03125 25.859375 22.9375 25.980469 C 22.839844 26.109375 22.730469 26.109375 22.621094 26.0625 C 22.507813 26.019531 22.398438 25.929688 22.320313 25.890625 C 22.230469 25.832031 22.179688 25.78125 22.121094 25.738281 C 22.050781 25.699219 21.949219 25.679688 21.769531 25.679688 C 21.570313 25.679688 21.5 25.808594 21.421875 25.949219 C 21.351563 26.089844 21.28125 26.238281 21.109375 26.269531 C 20.9375 26.308594 20.828125 26.210938 20.769531 26.039063 C 20.71875 25.859375 20.710938 25.609375 20.730469 25.339844 C 20.710938 24.988281 20.859375 24.46875 21.0625 23.980469 C 21.261719 23.492188 21.480469 23.039063 21.589844 22.828125 C 21.699219 22.609375 21.878906 22.179688 22.0625 21.699219 C 22.25 21.230469 22.441406 20.71875 22.570313 20.3125 C 22.699219 19.921875 22.960938 19.621094 23.261719 19.359375 C 23.558594 19.097656 23.921875 18.859375 24.238281 18.578125 C 24.550781 18.308594 24.929688 18.0625 25.300781 17.878906 C 25.671875 17.710938 26.019531 17.609375 26.289063 17.628906 Z"/></svg>